<svg width="140" height="58" viewBox="0 0 140 58" fill="none" xmlns="http://www.w3.org/2000/svg">
<path d="M8.11012 3.05764C11.4169 3.05764 13.9875 3.85347 15.822 5.44512C17.6564 7.03676 18.5736 9.39632 18.5736 12.5238C18.5736 15.7908 17.6685 18.2621 15.8582 19.9375C14.072 21.585 11.6704 22.4087 8.65321 22.4087H5.93777V32.0843H0V3.05764H8.11012ZM8.14633 17.4663C9.54629 17.4663 10.6083 17.0893 11.3324 16.3353C12.0807 15.5535 12.4548 14.283 12.4548 12.5238C12.4548 9.48009 10.9825 7.95825 8.03771 7.95825H5.93777V17.4663H8.14633Z" fill="black"/>
<path d="M37.268 20.5239C37.268 21.4454 37.2318 22.2412 37.1594 22.9114H25.2477C25.4408 24.7823 25.8994 26.0947 26.6235 26.8486C27.3476 27.6026 28.3493 27.9795 29.6286 27.9795C30.401 27.9795 31.1492 27.8259 31.8734 27.5188C32.5975 27.1837 33.3819 26.6811 34.2267 26.0109L36.5801 29.6968C34.3354 31.7632 31.8371 32.7964 29.0855 32.7964C25.9718 32.7964 23.5822 31.7353 21.9167 29.6131C20.2513 27.4909 19.4185 24.6426 19.4185 21.0684C19.4185 18.8066 19.7685 16.7821 20.4685 14.995C21.1685 13.18 22.1943 11.7559 23.546 10.7227C24.8977 9.66159 26.5149 9.13104 28.3976 9.13104C31.1734 9.13104 33.3457 10.1363 34.9147 12.1468C36.4836 14.1573 37.268 16.9497 37.268 20.5239ZM31.6561 18.6391C31.6078 15.2324 30.5699 13.529 28.5424 13.529C27.5528 13.529 26.7804 13.9479 26.2252 14.7856C25.6942 15.6233 25.3684 17.0055 25.2477 18.9323H31.6561V18.6391Z" fill="black"/>
<path d="M50.9089 9.21481C51.6089 9.21481 52.2485 9.31255 52.8278 9.50801L51.9227 15.9165C51.1985 15.721 50.6192 15.6233 50.1848 15.6233C49.0503 15.6233 48.1814 16.084 47.5779 17.0055C46.9987 17.8991 46.54 19.2534 46.2021 21.0684V32.0843H40.4816V9.8431H45.478L45.9487 14.1573C46.3832 12.6215 47.0349 11.4208 47.9038 10.5551C48.7969 9.66159 49.7986 9.21481 50.9089 9.21481Z" fill="black"/>
<path d="M69.0195 25.6339C69.0195 26.4716 69.116 27.086 69.3091 27.4769C69.5264 27.8678 69.8643 28.161 70.3229 28.3565L69.1281 32.6707C67.9454 32.559 66.9799 32.2658 66.2316 31.7911C65.4834 31.2885 64.9041 30.5066 64.4937 29.4455C63.2386 31.6794 61.3076 32.7964 58.7008 32.7964C56.794 32.7964 55.2733 32.1541 54.1388 30.8696C53.0044 29.5851 52.4372 27.9097 52.4372 25.8434C52.4372 23.414 53.2096 21.5571 54.7544 20.2726C56.2991 18.9881 58.5318 18.3459 61.4524 18.3459H63.4076V17.3825C63.4076 16.0701 63.1662 15.1765 62.6834 14.7018C62.2007 14.1992 61.3559 13.9479 60.149 13.9479C59.5215 13.9479 58.7611 14.0596 57.8681 14.283C56.975 14.4784 56.0578 14.7577 55.1164 15.1207L53.813 10.7646C55.0199 10.234 56.2509 9.82913 57.506 9.5499C58.7853 9.27066 59.968 9.13104 61.0542 9.13104C63.8058 9.13104 65.8213 9.78725 67.1006 11.0997C68.3798 12.4121 69.0195 14.3807 69.0195 17.0055V25.6339ZM60.3663 28.0633C61.6697 28.0633 62.6834 27.3512 63.4076 25.9271V21.9899H61.9955C60.6921 21.9899 59.7146 22.2552 59.0629 22.7857C58.4353 23.3163 58.1215 24.14 58.1215 25.257C58.1215 26.1505 58.3146 26.8486 58.7008 27.3512C59.1111 27.8259 59.6663 28.0633 60.3663 28.0633Z" fill="black"/>
<path d="M78.3275 32.7964C76.662 32.7964 75.3586 32.2518 74.4173 31.1628C73.5001 30.0459 73.0414 28.4682 73.0414 26.4298V1.00525L78.762 0.293197V26.1784C78.762 27.0999 79.0878 27.5607 79.7395 27.5607C80.0775 27.5607 80.3912 27.4909 80.6809 27.3512L81.8033 32.0424C80.7654 32.545 79.6068 32.7964 78.3275 32.7964Z" fill="black"/>
<path d="M96.0277 31.0372C95.3277 31.5956 94.507 32.0285 93.5657 32.3356C92.6484 32.6428 91.7312 32.7964 90.814 32.7964C86.6141 32.7684 84.5142 30.0878 84.5142 24.7543V14.4505H81.7987V9.8431H84.5142V5.02626L90.2347 4.27232V9.8431H94.6518L94.0363 14.4505H90.2347V24.6706C90.2347 25.7037 90.3795 26.4437 90.6692 26.8905C90.9588 27.3373 91.4174 27.5607 92.045 27.5607C92.6967 27.5607 93.3846 27.3233 94.1087 26.8486L96.0277 31.0372Z" fill="black"/>
<path d="M112.792 25.6339C112.792 26.4716 112.888 27.086 113.081 27.4769C113.299 27.8678 113.637 28.161 114.095 28.3565L112.9 32.6707C111.718 32.559 110.752 32.2658 110.004 31.7911C109.256 31.2885 108.676 30.5066 108.266 29.4455C107.011 31.6794 105.08 32.7964 102.473 32.7964C100.566 32.7964 99.0457 32.1541 97.9112 30.8696C96.7768 29.5851 96.2095 27.9097 96.2095 25.8434C96.2095 23.414 96.9819 21.5571 98.5267 20.2726C100.072 18.9881 102.304 18.3459 105.225 18.3459H107.18V17.3825C107.18 16.0701 106.939 15.1765 106.456 14.7018C105.973 14.1992 105.128 13.9479 103.921 13.9479C103.294 13.9479 102.534 14.0596 101.64 14.283C100.747 14.4784 99.8301 14.7577 98.8888 15.1207L97.5854 10.7646C98.7922 10.234 100.023 9.82913 101.278 9.5499C102.558 9.27066 103.74 9.13104 104.827 9.13104C107.578 9.13104 109.594 9.78725 110.873 11.0997C112.152 12.4121 112.792 14.3807 112.792 17.0055V25.6339ZM104.139 28.0633C105.442 28.0633 106.456 27.3512 107.18 25.9271V21.9899H105.768C104.464 21.9899 103.487 22.2552 102.835 22.7857C102.208 23.3163 101.894 24.14 101.894 25.257C101.894 26.1505 102.087 26.8486 102.473 27.3512C102.883 27.8259 103.439 28.0633 104.139 28.0633Z" fill="black"/>
<path d="M119.131 0C120 0 120.724 0.321122 121.303 0.963367C121.883 1.60561 122.172 2.4154 122.172 3.39272C122.172 3.92328 122.088 4.46779 121.919 5.02626C121.774 5.58473 121.509 6.33867 121.122 7.28808L118.805 12.7751H115.872L117.393 6.24094C116.5 5.51493 116.053 4.55156 116.053 3.35084C116.053 2.40144 116.343 1.60561 116.922 0.963367C117.526 0.321122 118.262 0 119.131 0Z" fill="black"/>
<path d="M132.216 9.13104C133.592 9.13104 134.883 9.36839 136.09 9.8431C137.297 10.3178 138.359 10.988 139.276 11.8536L137.176 15.5814C135.607 14.4365 134.026 13.8641 132.433 13.8641C131.685 13.8641 131.105 14.0177 130.695 14.3248C130.309 14.6041 130.116 15.009 130.116 15.5395C130.116 15.9584 130.2 16.3074 130.369 16.5867C130.562 16.838 130.936 17.1032 131.492 17.3825C132.047 17.6617 132.904 17.9968 134.062 18.3877C136.066 19.0579 137.55 19.9375 138.516 21.0265C139.505 22.0876 140 23.5676 140 25.4664C140 26.9743 139.626 28.2867 138.878 29.4036C138.129 30.4927 137.104 31.3304 135.8 31.9168C134.497 32.5032 133.048 32.7964 131.455 32.7964C129.838 32.7964 128.33 32.5032 126.93 31.9168C125.554 31.3304 124.383 30.5206 123.418 29.4874L126.206 25.8852C127.823 27.3373 129.524 28.0633 131.311 28.0633C132.18 28.0633 132.855 27.8818 133.338 27.5188C133.845 27.1558 134.098 26.6392 134.098 25.969C134.098 25.4385 134.002 25.0196 133.809 24.7125C133.616 24.4053 133.242 24.1261 132.686 23.8747C132.131 23.5955 131.25 23.2604 130.043 22.8695C128.137 22.2272 126.712 21.3337 125.771 20.1888C124.83 19.0439 124.359 17.6198 124.359 15.9165C124.359 14.632 124.673 13.4871 125.3 12.4819C125.952 11.4487 126.869 10.6389 128.052 10.0525C129.259 9.4382 130.647 9.13104 132.216 9.13104Z" fill="black"/>
<path d="M26.9774 40.1263V50.607H31.3221L31.0486 53.0271H24.3384V40.1263H26.9774Z" fill="#40B06D"/>
<path d="M39.1737 50.1602C39.1737 50.5325 39.2166 50.8056 39.3024 50.9793C39.3989 51.1531 39.5491 51.2834 39.7529 51.3703L39.2219 53.2877C38.6963 53.238 38.2672 53.1077 37.9346 52.8967C37.602 52.6734 37.3446 52.3259 37.1622 51.8543C36.6044 52.8471 35.7462 53.3435 34.5876 53.3435C33.7401 53.3435 33.0642 53.0581 32.56 52.4872C32.0558 51.9163 31.8037 51.1717 31.8037 50.2533C31.8037 49.1736 32.147 48.3483 32.8336 47.7774C33.5202 47.2065 34.5125 46.9211 35.8105 46.9211H36.6795V46.4929C36.6795 45.9096 36.5722 45.5125 36.3576 45.3015C36.1431 45.0781 35.7676 44.9664 35.2312 44.9664C34.9523 44.9664 34.6144 45.0161 34.2175 45.1153C33.8205 45.2022 33.4129 45.3263 32.9945 45.4877L32.4152 43.5516C32.9516 43.3158 33.4987 43.1359 34.0565 43.0118C34.6251 42.8877 35.1508 42.8256 35.6335 42.8256C36.8565 42.8256 37.7522 43.1173 38.3208 43.7005C38.8894 44.2838 39.1737 45.1588 39.1737 46.3254V50.1602ZM35.3278 51.2399C35.9071 51.2399 36.3576 50.9235 36.6795 50.2905V48.5407H36.0519C35.4726 48.5407 35.0381 48.6586 34.7485 48.8944C34.4696 49.1302 34.3301 49.4963 34.3301 49.9927C34.3301 50.3898 34.4159 50.7001 34.5876 50.9235C34.7699 51.1345 35.0167 51.2399 35.3278 51.2399Z" fill="#40B06D"/>
<path d="M46.2033 42.8256C46.9435 42.8256 47.5228 43.0862 47.9411 43.6075C48.3595 44.1287 48.5687 44.8609 48.5687 45.8041V53.0271H46.0262V46.3068C46.0262 45.8103 45.9565 45.469 45.8171 45.2829C45.6883 45.0843 45.4899 44.985 45.2217 44.985C44.7067 44.985 44.2133 45.4132 43.7413 46.2695V53.0271H41.1988V43.1421H43.4194L43.5964 44.3149C43.9612 43.8184 44.3527 43.4461 44.7711 43.1979C45.2002 42.9497 45.6776 42.8256 46.2033 42.8256Z" fill="#40B06D"/>
<path d="M58.1455 39.2141V53.0271H55.8927L55.764 51.8729C55.1633 52.8533 54.3533 53.3435 53.3342 53.3435C52.2721 53.3435 51.4622 52.8719 50.9044 51.9287C50.3573 50.9855 50.0837 49.6948 50.0837 48.0566C50.0837 47.0514 50.2285 46.1516 50.5182 45.3574C50.8078 44.5631 51.2155 43.9426 51.7411 43.4958C52.2775 43.049 52.889 42.8256 53.5756 42.8256C54.3909 42.8256 55.0667 43.1359 55.6031 43.7564V38.8977L58.1455 39.2141ZM54.1227 51.1841C54.7127 51.1841 55.2062 50.8118 55.6031 50.0671V45.8041C55.3993 45.5187 55.1901 45.3077 54.9755 45.1712C54.7717 45.0347 54.5357 44.9664 54.2675 44.9664C53.7955 44.9664 53.42 45.2208 53.1411 45.7297C52.8622 46.2385 52.7227 47.0204 52.7227 48.0753C52.7227 49.2294 52.8407 50.0361 53.0767 50.4953C53.3235 50.9545 53.6721 51.1841 54.1227 51.1841Z" fill="#40B06D"/>
<path d="M63.1437 42.8256C63.7552 42.8256 64.3291 42.9311 64.8655 43.1421C65.4019 43.3531 65.8739 43.6509 66.2816 44.0356L65.3483 45.6924C64.651 45.1836 63.9483 44.9292 63.2403 44.9292C62.9077 44.9292 62.6502 44.9974 62.4679 45.134C62.2962 45.2581 62.2104 45.438 62.2104 45.6738C62.2104 45.86 62.248 46.0151 62.323 46.1392C62.4089 46.2509 62.5752 46.3688 62.8219 46.4929C63.0686 46.617 63.4495 46.7659 63.9644 46.9397C64.8548 47.2375 65.5145 47.6285 65.9436 48.1125C66.3835 48.5841 66.6034 49.2418 66.6034 50.0858C66.6034 50.7559 66.4371 51.3392 66.1046 51.8356C65.772 52.3197 65.3161 52.692 64.7368 52.9526C64.1575 53.2132 63.5138 53.3435 62.8058 53.3435C62.087 53.3435 61.4166 53.2132 60.7944 52.9526C60.1829 52.692 59.6626 52.3321 59.2335 51.8729L60.4725 50.2719C61.1913 50.9173 61.9476 51.2399 62.7414 51.2399C63.1276 51.2399 63.428 51.1593 63.6426 50.9979C63.8678 50.8366 63.9805 50.607 63.9805 50.3092C63.9805 50.0734 63.9376 49.8872 63.8517 49.7507C63.7659 49.6142 63.5996 49.4901 63.3529 49.3784C63.1062 49.2543 62.7146 49.1053 62.1782 48.9316C61.3307 48.6461 60.6978 48.249 60.2794 47.7402C59.8611 47.2313 59.6519 46.5984 59.6519 45.8414C59.6519 45.2705 59.7913 44.7616 60.0702 44.3149C60.3599 43.8557 60.7675 43.4958 61.2932 43.2352C61.8296 42.9621 62.4464 42.8256 63.1437 42.8256Z" fill="#40B06D"/>
<path d="M71.6143 42.8256C72.2043 42.8256 72.7353 42.9249 73.2073 43.1235C73.6793 43.322 74.1245 43.6261 74.5429 44.0356L73.4487 45.7855C72.9123 45.3139 72.3706 45.0781 71.8235 45.0781C71.2549 45.0781 70.8258 45.3201 70.5361 45.8041C70.2465 46.2881 70.1017 47.07 70.1017 48.1497C70.1017 49.1922 70.2465 49.9306 70.5361 50.365C70.8258 50.7994 71.2442 51.0165 71.7913 51.0165C72.0809 51.0165 72.3437 50.9669 72.5798 50.8676C72.8158 50.7559 73.1 50.5822 73.4326 50.3464L74.5429 52.1707C73.6954 52.9526 72.7353 53.3435 71.6625 53.3435C70.7936 53.3435 70.0427 53.1325 69.4097 52.7106C68.7768 52.2762 68.2887 51.6743 67.9454 50.9049C67.6021 50.123 67.4305 49.2108 67.4305 48.1683C67.4305 47.1259 67.6021 46.2013 67.9454 45.3946C68.2887 44.5879 68.7768 43.9612 69.4097 43.5144C70.0427 43.0552 70.7775 42.8256 71.6143 42.8256Z" fill="#40B06D"/>
<path d="M82.2467 50.1602C82.2467 50.5325 82.2896 50.8056 82.3755 50.9793C82.472 51.1531 82.6222 51.2834 82.826 51.3703L82.295 53.2877C81.7694 53.238 81.3402 53.1077 81.0077 52.8967C80.6751 52.6734 80.4177 52.3259 80.2353 51.8543C79.6775 52.8471 78.8192 53.3435 77.6606 53.3435C76.8132 53.3435 76.1373 53.0581 75.6331 52.4872C75.1289 51.9163 74.8768 51.1717 74.8768 50.2533C74.8768 49.1736 75.2201 48.3483 75.9067 47.7774C76.5932 47.2065 77.5856 46.9211 78.8836 46.9211H79.7525V46.4929C79.7525 45.9096 79.6453 45.5125 79.4307 45.3015C79.2162 45.0781 78.8407 44.9664 78.3043 44.9664C78.0254 44.9664 77.6875 45.0161 77.2905 45.1153C76.8936 45.2022 76.486 45.3263 76.0676 45.4877L75.4883 43.5516C76.0247 43.3158 76.5718 43.1359 77.1296 43.0118C77.6982 42.8877 78.2239 42.8256 78.7066 42.8256C79.9296 42.8256 80.8253 43.1173 81.3939 43.7005C81.9624 44.2838 82.2467 45.1588 82.2467 46.3254V50.1602ZM78.4009 51.2399C78.9802 51.2399 79.4307 50.9235 79.7525 50.2905V48.5407H79.125C78.5457 48.5407 78.1112 48.6586 77.8216 48.8944C77.5426 49.1302 77.4032 49.4963 77.4032 49.9927C77.4032 50.3898 77.489 50.7001 77.6606 50.9235C77.843 51.1345 78.0898 51.2399 78.4009 51.2399Z" fill="#40B06D"/>
<path d="M89.0993 42.8256C90.1721 42.8256 90.9713 43.2848 91.497 44.2032C92.0226 45.1216 92.2854 46.406 92.2854 48.0566C92.2854 49.0743 92.146 49.9865 91.8671 50.7932C91.5989 51.5874 91.2073 52.2142 90.6924 52.6734C90.1775 53.1201 89.5767 53.3435 88.8901 53.3435C88.0319 53.3435 87.34 53.0022 86.8143 52.3197V56.8433L84.2719 57.1598V43.1421H86.5086L86.6373 44.2404C86.9699 43.7564 87.3507 43.4027 87.7798 43.1793C88.2089 42.9435 88.6488 42.8256 89.0993 42.8256ZM88.1177 51.1841C89.1369 51.1841 89.6464 50.154 89.6464 48.0939C89.6464 46.9273 89.5338 46.1206 89.3085 45.6738C89.0832 45.2146 88.7453 44.985 88.2947 44.985C88.0051 44.985 87.7315 45.0843 87.4741 45.2829C87.2273 45.4815 87.0074 45.7669 86.8143 46.1392V50.3092C87.1576 50.8924 87.5921 51.1841 88.1177 51.1841Z" fill="#40B06D"/>
<path d="M96.4158 43.1421V53.0271H93.8733V43.1421H96.4158ZM95.1285 37.9297C95.5683 37.9297 95.9277 38.091 96.2066 38.4137C96.4963 38.7239 96.6411 39.1211 96.6411 39.6051C96.6411 40.0891 96.4963 40.4924 96.2066 40.8151C95.9277 41.1254 95.5683 41.2805 95.1285 41.2805C94.6887 41.2805 94.3293 41.1254 94.0504 40.8151C93.7714 40.4924 93.632 40.0891 93.632 39.6051C93.632 39.1211 93.7714 38.7239 94.0504 38.4137C94.3293 38.091 94.6887 37.9297 95.1285 37.9297Z" fill="#40B06D"/>
<path d="M103.419 42.8256C104.159 42.8256 104.739 43.0862 105.157 43.6075C105.576 44.1287 105.785 44.8609 105.785 45.8041V53.0271H103.242V46.3068C103.242 45.8103 103.173 45.469 103.033 45.2829C102.904 45.0843 102.706 44.985 102.438 44.985C101.923 44.985 101.429 45.4132 100.957 46.2695V53.0271H98.4148V43.1421H100.635L100.812 44.3149C101.177 43.8184 101.569 43.4461 101.987 43.1979C102.416 42.9497 102.894 42.8256 103.419 42.8256Z" fill="#40B06D"/>
<path d="M115.571 43.7192C115.013 43.9798 114.192 44.1101 113.109 44.1101C113.667 44.3831 114.074 44.7182 114.332 45.1153C114.589 45.5125 114.718 46.0275 114.718 46.6605C114.718 47.2934 114.573 47.8643 114.283 48.3731C113.994 48.8695 113.575 49.2605 113.028 49.5459C112.492 49.8313 111.859 49.9741 111.129 49.9741C110.786 49.9741 110.459 49.9368 110.148 49.8624C110.062 49.912 109.992 49.9927 109.939 50.1044C109.896 50.2037 109.874 50.3092 109.874 50.4208C109.874 50.607 109.933 50.7559 110.051 50.8676C110.18 50.9669 110.432 51.0165 110.808 51.0165H112.095C112.749 51.0165 113.323 51.1407 113.817 51.3889C114.31 51.6371 114.691 51.9784 114.959 52.4127C115.227 52.8471 115.362 53.3373 115.362 53.8834C115.362 54.9135 114.975 55.7139 114.203 56.2848C113.441 56.8681 112.336 57.1598 110.888 57.1598C109.848 57.1598 109.027 57.0294 108.426 56.7688C107.825 56.5206 107.402 56.1669 107.155 55.7077C106.919 55.2485 106.801 54.6715 106.801 53.9765H109.086C109.086 54.2743 109.134 54.5101 109.231 54.6839C109.338 54.8576 109.526 54.9879 109.794 55.0748C110.062 55.1617 110.448 55.2051 110.952 55.2051C111.65 55.2051 112.133 55.1058 112.401 54.9072C112.669 54.7211 112.803 54.4481 112.803 54.0882C112.803 53.7903 112.701 53.5545 112.497 53.3808C112.293 53.207 111.988 53.1201 111.58 53.1201H110.341C109.461 53.1201 108.802 52.9402 108.362 52.5803C107.933 52.208 107.718 51.7364 107.718 51.1655C107.718 50.8056 107.809 50.4581 107.992 50.123C108.174 49.7755 108.421 49.4901 108.732 49.2667C108.195 48.9316 107.804 48.5407 107.557 48.0939C107.321 47.6347 107.203 47.0824 107.203 46.4371C107.203 45.3325 107.546 44.4576 108.233 43.8122C108.92 43.1545 109.826 42.8256 110.952 42.8256C111.811 42.8504 112.535 42.7511 113.125 42.5278C113.726 42.3044 114.342 41.9755 114.975 41.5411L115.571 43.7192ZM111.017 44.7616C110.62 44.7616 110.303 44.9106 110.067 45.2084C109.842 45.4939 109.73 45.891 109.73 46.3998C109.73 46.9335 109.842 47.3492 110.067 47.6471C110.303 47.9325 110.62 48.0753 111.017 48.0753C111.435 48.0753 111.752 47.9325 111.966 47.6471C112.192 47.3617 112.304 46.9335 112.304 46.3626C112.304 45.2953 111.875 44.7616 111.017 44.7616Z" fill="#40B06D"/>
</svg>
